{
  "accessors": [
    {
      "bufferView": 2,
      "componentType": 5126,
      "count": 35862,
      "max": [
        0.9999999403953552,
        1.7123656272888184,
        1.3422785997390747
      ],
      "min": [
        -1.000000238418579,
        -1.7136272192001343,
        -1.2728482484817505
      ],
      "type": "VEC3"
    },
    {
      "bufferView": 2,
      "byteOffset": 430344,
      "componentType": 5126,
      "count": 35862,
      "max": [
        1.0,
        0.00010000461043091491,
        1.0
      ],
      "min": [
        -1.0,
        -1.0,
        -0.9999920129776001
      ],
      "type": "VEC3"
    },
    {
      "bufferView": 1,
      "componentType": 5126,
      "count": 35862,
      "max": [
        0.6250002384185791,
        1.0
      ],
      "min": [
        0.125,
        -1.1920928955078125e-07
      ],
      "type": "VEC2"
    },
    {
      "bufferView": 0,
      "componentType": 5125,
      "count": 210144,
      "type": "SCALAR"
    },
    {
      "bufferView": 2,
      "byteOffset": 860688,
      "componentType": 5126,
      "count": 21903,
      "max": [
        0.9999999403953552,
        2.651547431945801,
        1.3422871828079224
      ],
      "min": [
        -1.000000238418579,
        0.5324832201004028,
        -1.2764347791671753
      ],
      "type": "VEC3"
    },
    {
      "bufferView": 2,
      "byteOffset": 1123524,
      "componentType": 5126,
      "count": 21903,
      "max": [
        1.0,
        1.0,
        1.0
      ],
      "min": [
        -1.0,
        -1.0,
        -1.0
      ],
      "type": "VEC3"
    },
    {
      "bufferView": 1,
      "byteOffset": 286896,
      "componentType": 5126,
      "count": 21903,
      "max": [
        0.8750001788139343,
        1.0
      ],
      "min": [
        0.6239013075828552,
        -1.1920928955078125e-07
      ],
      "type": "VEC2"
    },
    {
      "bufferView": 0,
      "byteOffset": 840576,
      "componentType": 5125,
      "count": 126432,
      "type": "SCALAR"
    },
    {
      "bufferView": 2,
      "byteOffset": 1386360,
      "componentType": 5126,
      "count": 6937,
      "max": [
        0.9982157945632935,
        0.7444617748260498,
        1.2878162860870361
      ],
      "min": [
        -0.9982157349586487,
        -1.2555385828018188,
        -0.8224200010299683
      ],
      "type": "VEC3"
    },
    {
      "bufferView": 2,
      "byteOffset": 1469604,
      "componentType": 5126,
      "count": 6937,
      "max": [
        0.9999998807907104,
        1.0,
        1.0
      ],
      "min": [
        -0.9999998807907104,
        -1.0,
        -1.0
      ],
      "type": "VEC3"
    },
    {
      "bufferView": 1,
      "byteOffset": 462120,
      "componentType": 5126,
      "count": 6937,
      "max": [
        0.8750001192092896,
        1.0
      ],
      "min": [
        0.125,
        -1.1920928955078125e-07
      ],
      "type": "VEC2"
    },
    {
      "bufferView": 0,
      "byteOffset": 1346304,
      "componentType": 5125,
      "count": 40704,
      "type": "SCALAR"
    },
    {
      "bufferView": 2,
      "byteOffset": 1552848,
      "componentType": 5126,
      "count": 166,
      "max": [
        1.2003995180130005,
        1.7464406490325928,
        11.073243141174316
      ],
      "min": [
        -1.173262596130371,
        -0.019657909870147705,
        6.407486438751221
      ],
      "type": "VEC3"
    },
    {
      "bufferView": 2,
      "byteOffset": 1554840,
      "componentType": 5126,
      "count": 166,
      "max": [
        1.0,
        1.0,
        1.0
      ],
      "min": [
        -1.0,
        -1.0,
        -1.0
      ],
      "type": "VEC3"
    },
    {
      "bufferView": 1,
      "byteOffset": 517616,
      "componentType": 5126,
      "count": 166,
      "max": [
        0.875,
        1.0
      ],
      "min": [
        0.125,
        0.0
      ],
      "type": "VEC2"
    },
    {
      "bufferView": 0,
      "byteOffset": 1509120,
      "componentType": 5125,
      "count": 348,
      "type": "SCALAR"
    },
    {
      "bufferView": 2,
      "byteOffset": 1556832,
      "componentType": 5126,
      "count": 36,
      "max": [
        1.2003995180130005,
        1.680570125579834,
        10.24695873260498
      ],
      "min": [
        -1.1782625913619995,
        0.5085630416870117,
        6.505641460418701
      ],
      "type": "VEC3"
    },
    {
      "bufferView": 2,
      "byteOffset": 1557264,
      "componentType": 5126,
      "count": 36,
      "max": [
        1.0,
        0.0,
        -0.0
      ],
      "min": [
        -1.0,
        -0.27899762988090515,
        -0.9602918028831482
      ],
      "type": "VEC3"
    },
    {
      "bufferView": 1,
      "byteOffset": 518944,
      "componentType": 5126,
      "count": 36,
      "max": [
        0.8538541793823242,
        0.9812546372413635
      ],
      "min": [
        0.45453500747680664,
        0.26814961433410645
      ],
      "type": "VEC2"
    },
    {
      "bufferView": 0,
      "byteOffset": 1510512,
      "componentType": 5125,
      "count": 54,
      "type": "SCALAR"
    },
    {
      "bufferView": 2,
      "byteOffset": 1557696,
      "componentType": 5126,
      "count": 91,
      "max": [
        1.2003995180130005,
        0.908530056476593,
        10.24695873260498
      ],
      "min": [
        -1.1782625913619995,
        0.5085630416870117,
        7.1504807472229
      ],
      "type": "VEC3"
    },
    {
      "bufferView": 2,
      "byteOffset": 1558788,
      "componentType": 5126,
      "count": 91,
      "max": [
        0.0,
        1.0,
        1.0
      ],
      "min": [
        0.0,
        -1.0,
        -1.0
      ],
      "type": "VEC3"
    },
    {
      "bufferView": 1,
      "byteOffset": 519232,
      "componentType": 5126,
      "count": 91,
      "max": [
        0.5454649925231934,
        0.9812546372413635
      ],
      "min": [
        0.45453500747680664,
        0.2687453031539917
      ],
      "type": "VEC2"
    },
    {
      "bufferView": 0,
      "byteOffset": 1510728,
      "componentType": 5125,
      "count": 135,
      "type": "SCALAR"
    }
  ],
  "asset": {
    "extras": {
      "author": "Nutical3D (https://sketchfab.com/Nutical3D)",
      "license": "CC-BY-4.0 (http://creativecommons.org/licenses/by/4.0/)",
      "source": "https://sketchfab.com/3d-models/inland-freighter-ea785f62318a47909e7a7594439f04dd",
      "title": "Inland freighter"
    },
    "generator": "Sketchfab-15.49.0",
    "version": "2.0"
  },
  "bufferViews": [
    {
      "buffer": 0,
      "byteLength": 1511268,
      "name": "floatBufferViews",
      "target": 34963
    },
    {
      "buffer": 0,
      "byteLength": 519960,
      "byteOffset": 1511268,
      "byteStride": 8,
      "name": "floatBufferViews",
      "target": 34962
    },
    {
      "buffer": 0,
      "byteLength": 1559880,
      "byteOffset": 2031228,
      "byteStride": 12,
      "name": "floatBufferViews",
      "target": 34962
    }
  ],
  "buffers": [
    {
      "byteLength": 3591108,
      "uri": "ship.bin"
    }
  ],
  "extensionsUsed": [
    "KHR_materials_transmission"
  ],
  "materials": [
    {
      "doubleSided": true,
      "name": "Material.001",
      "pbrMetallicRoughness": {
        "baseColorFactor": [
          0.0,
          0.0,
          0.0,
          1.0
        ],
        "metallicFactor": 0.0
      }
    },
    {
      "doubleSided": true,
      "name": "Material.002",
      "pbrMetallicRoughness": {
        "baseColorFactor": [
          0.8,
          0.8,
          0.8,
          1.0
        ],
        "metallicFactor": 0.0,
        "roughnessFactor": 0.254545
      }
    },
    {
      "doubleSided": true,
      "name": "Material.003",
      "pbrMetallicRoughness": {
        "baseColorFactor": [
          0.8,
          0.0,
          0.0,
          1.0
        ],
        "metallicFactor": 0.0,
        "roughnessFactor": 0.404545
      }
    },
    {
      "alphaMode": "BLEND",
      "doubleSided": true,
      "extensions": {
        "KHR_materials_transmission": {
          "transmissionFactor": 1.0
        }
      },
      "name": "Material.005",
      "pbrMetallicRoughness": {
        "baseColorFactor": [
          0.0,
          0.0212481,
          0.0400053,
          0.25
        ],
        "metallicFactor": 0.0,
        "roughnessFactor": 0.0
      }
    },
    {
      "doubleSided": true,
      "name": "Material.006",
      "pbrMetallicRoughness": {
        "baseColorFactor": [
          0.0,
          0.0,
          0.0,
          1.0
        ],
        "metallicFactor": 0.0,
        "roughnessFactor": 0.5
      }
    }
  ],
  "meshes": [
    {
      "name": "Object_0",
      "primitives": [
        {
          "attributes": {
            "NORMAL": 1,
            "POSITION": 0,
            "TEXCOORD_0": 2
          },
          "indices": 3,
          "material": 0,
          "mode": 4
        }
      ]
    },
    {
      "name": "Object_1",
      "primitives": [
        {
          "attributes": {
            "NORMAL": 5,
            "POSITION": 4,
            "TEXCOORD_0": 6
          },
          "indices": 7,
          "material": 1,
          "mode": 4
        }
      ]
    },
    {
      "name": "Object_2",
      "primitives": [
        {
          "attributes": {
            "NORMAL": 9,
            "POSITION": 8,
            "TEXCOORD_0": 10
          },
          "indices": 11,
          "material": 2,
          "mode": 4
        }
      ]
    },
    {
      "name": "Object_3",
      "primitives": [
        {
          "attributes": {
            "NORMAL": 13,
            "POSITION": 12,
            "TEXCOORD_0": 14
          },
          "indices": 15,
          "material": 1,
          "mode": 4
        }
      ]
    },
    {
      "name": "Object_4",
      "primitives": [
        {
          "attributes": {
            "NORMAL": 17,
            "POSITION": 16,
            "TEXCOORD_0": 18
          },
          "indices": 19,
          "material": 3,
          "mode": 4
        }
      ]
    },
    {
      "name": "Object_5",
      "primitives": [
        {
          "attributes": {
            "NORMAL": 21,
            "POSITION": 20,
            "TEXCOORD_0": 22
          },
          "indices": 23,
          "material": 4,
          "mode": 4
        }
      ]
    }
  ],
  "nodes": [
    {
      "children": [
        1
      ],
      "matrix": [
        1.0,
        0.0,
        0.0,
        0.0,
        0.0,
        2.220446049250313e-16,
        -1.0,
        0.0,
        0.0,
        1.0,
        2.220446049250313e-16,
        0.0,
        0.0,
        0.0,
        0.0,
        1.0
      ],
      "name": "Sketchfab_model"
    },
    {
      "children": [
        2
      ],
      "name": "root"
    },
    {
      "children": [
        3,
        6,
        8
      ],
      "matrix": [
        1.0,
        0.0,
        0.0,
        0.0,
        0.0,
        2.220446049250313e-16,
        1.0,
        0.0,
        0.0,
        -1.0,
        2.220446049250313e-16,
        0.0,
        0.0,
        0.0,
        0.0,
        1.0
      ],
      "name": "GLTF_SceneRootNode"
    },
    {
      "children": [
        4,
        5
      ],
      "matrix": [
        6.965505599975586,
        0.0,
        0.0,
        0.0,
        0.0,
        1.9633827209472656,
        0.0,
        0.0,
        0.0,
        0.0,
        42.153160095214844,
        0.0,
        0.0,
        4.1149725914001465,
        -0.29600515961647034,
        1.0
      ],
      "name": "Cube_0"
    },
    {
      "mesh": 0,
      "name": "Object_4"
    },
    {
      "mesh": 1,
      "name": "Object_5"
    },
    {
      "children": [
        7
      ],
      "matrix": [
        -5.6613569259643555,
        -0.0,
        0.0,
        -0.0,
        -0.0,
        -2.6159095764160156,
        0.0,
        -0.0,
        -0.0,
        -0.0,
        -28.218463897705078,
        -0.0,
        0.0,
        4.114973545074463,
        -0.29600512981414795,
        1.0
      ],
      "name": "Cube.001_1"
    },
    {
      "mesh": 2,
      "name": "Object_7"
    },
    {
      "children": [
        9,
        10,
        11
      ],
      "matrix": [
        4.592272758483887,
        0.0,
        0.0,
        0.0,
        0.0,
        4.592272758483887,
        0.0,
        0.0,
        0.0,
        0.0,
        4.592272758483887,
        0.0,
        0.0,
        4.114973068237305,
        -0.2960052490234375,
        1.0
      ],
      "name": "Cube.002_2"
    },
    {
      "mesh": 3,
      "name": "Object_9"
    },
    {
      "mesh": 4,
      "name": "Object_10"
    },
    {
      "mesh": 5,
      "name": "Object_11"
    }
  ],
  "scene": 0,
  "scenes": [
    {
      "name": "Sketchfab_Scene",
      "nodes": [
        0
      ]
    }
  ]
}
